<?xml version="1.0" encoding="utf-8" ?>
<svg xmlns="http://www.w3.org/2000/svg" xmlns:xlink="http://www.w3.org/1999/xlink" width="893" height="270" viewBox="0 0 893 270">
	<path transform="matrix(1 0 0 1 319 16)" d="M246.439 140.24L182.546 30.4871L182.42 30.2696C169.889 10.0899 151.749 0 128 0C104.251 0 86.1108 10.0899 73.5797 30.2696L73.4539 30.4871L9.5613 140.24C3.45879 150.122 0.277415 160.869 0.0171768 172.481C-0.243062 184.094 2.45366 194.973 8.10734 205.118C13.761 215.264 21.5934 223.279 31.6043 229.165C41.6153 235.05 52.4268 237.995 64.0387 238L191.961 238C203.573 237.995 214.385 235.05 224.396 229.165C234.407 223.279 242.239 215.264 247.893 205.118C253.546 194.973 256.243 184.094 255.983 172.481C255.723 160.869 252.541 150.122 246.439 140.24ZM231.933 196.175C227.943 203.476 222.364 209.236 215.194 213.454C208.023 217.673 200.279 219.751 191.961 219.691L182.912 219.691L182.912 164.763C182.912 159.707 181.125 155.391 177.551 151.816C173.977 148.241 169.663 146.454 164.608 146.454L91.3919 146.454C86.3374 146.454 82.023 148.241 78.449 151.816C74.8749 155.391 73.0878 159.707 73.0878 164.763L73.0878 219.691L64.0387 219.691C55.7333 219.693 48.0004 217.59 40.84 213.38C33.6796 209.171 28.0799 203.437 24.0409 196.177C20.0019 188.918 18.081 181.136 18.2783 172.831C18.4755 164.525 20.7636 156.843 25.1426 149.784C25.1658 149.747 25.1878 149.709 25.2088 149.671C25.2298 149.633 25.2497 149.594 25.2685 149.555L89.1611 39.8134C98.1224 25.471 111.057 18.2998 127.966 18.2998C144.874 18.2998 157.809 25.471 166.77 39.8134L230.663 149.555C230.682 149.594 230.702 149.633 230.723 149.671C230.744 149.709 230.766 149.747 230.789 149.784C235.235 156.82 237.561 164.499 237.767 172.821C237.972 181.143 236.027 188.928 231.933 196.175Z" fill-rule="nonzero" fill="rgb(159, 225, 255)" fill-opacity="0.8"/>
	<defs>
		<filter id="filter7172910134" filterUnits="userSpaceOnUse" color-interpolation-filters="sRGB">
			<feComponentTransfer in="SourceAlpha" result="componentTransfer1919342751">
				<feFuncR type="linear" slope="0" intercept="0"/>
				<feFuncG type="linear" slope="0" intercept="0"/>
				<feFuncB type="linear" slope="0" intercept="0"/>
				<feFuncA type="linear" slope="10000" intercept="0"/>
			</feComponentTransfer>
			<feComponentTransfer in="componentTransfer1919342751" result="componentTransfer3058752643">
				<feFuncA type="linear" slope="0.5" intercept="0"/>
			</feComponentTransfer>
			<feOffset dx="0" dy="4" in="componentTransfer3058752643" result="offset3842649097"/>
			<feGaussianBlur stdDeviation="2" in="offset3842649097" result="gaussianBlur2161910073"/>
			<feMerge>
				<feMergeNode in="gaussianBlur2161910073"/>
				<feMergeNode in="SourceGraphic"/>
			</feMerge>
		</filter>
	</defs>
	<g filter="url(#filter7172910134)">
		<path transform="matrix(1 0 0 1 16 16)" d="M279.432 123.932Q279.432 137.872 274.831 149.845Q270.273 161.819 261.919 170.799Q253.609 179.779 242.26 184.828Q230.957 189.832 217.375 189.832Q204.016 189.832 192.668 184.828Q181.365 179.779 173.01 170.799Q164.7 161.819 160.187 149.845Q155.72 137.872 155.72 123.932Q155.72 110.037 160.187 98.0637Q164.7 86.0901 173.01 77.1099Q181.365 68.1296 192.668 63.1257Q204.016 58.0771 217.375 58.0771Q230.957 58.0771 242.26 63.1257Q253.609 68.1296 261.919 77.1099Q270.273 86.0901 274.831 98.0637Q279.432 110.037 279.432 123.932ZM259.685 123.932Q259.685 110.395 254.279 99.6274Q248.873 88.8154 239.356 82.6052Q229.84 76.3503 217.375 76.3503Q205.133 76.3503 195.617 82.6052Q186.101 88.8154 180.784 99.5381Q175.467 110.216 175.467 123.932Q175.467 137.514 180.784 148.326Q186.101 159.094 195.617 165.304Q205.133 171.514 217.375 171.514Q229.84 171.514 239.356 165.304Q248.873 159.094 254.279 148.326Q259.685 137.514 259.685 123.932Z" fill-rule="nonzero" fill="rgb(255, 255, 255)" fill-opacity="0.8"/>
		<path transform="matrix(1 0 0 1 16 16)" d="M349.534 89.5303Q362.535 89.5303 369.639 94.9363Q376.788 100.342 379.602 109.412Q382.462 118.481 382.462 129.606L382.462 178.662Q382.462 182.683 379.781 185.364Q377.145 188 373.303 188Q369.282 188 366.69 185.364Q364.144 182.683 364.144 178.662L364.144 129.785Q364.144 123.217 362.312 118.035Q360.48 112.807 356.013 109.591Q351.545 106.374 343.503 106.374Q335.997 106.374 330.323 109.591Q324.649 112.807 321.432 118.035Q318.215 123.217 318.215 129.785L318.215 178.662Q318.215 182.683 315.579 185.364Q312.943 188 309.101 188Q305.035 188 302.489 185.364Q299.942 182.683 299.942 178.662L299.942 101.057Q299.942 97.0361 302.489 94.4001Q305.035 91.7642 309.101 91.7642Q312.943 91.7642 315.579 94.4001Q318.215 97.0361 318.215 101.057L318.215 111.333L314.954 113.165Q316.205 109.144 319.421 105.033Q322.638 100.878 327.195 97.3489Q331.753 93.7747 337.427 91.6748Q343.101 89.5303 349.534 89.5303Z" fill-rule="nonzero" fill="rgb(255, 255, 255)" fill-opacity="0.8"/>
		<path transform="matrix(1 0 0 1 16 16)" d="M425.113 178.662Q425.113 182.683 422.522 185.364Q419.975 188 415.954 188Q412.112 188 409.431 185.364Q406.795 182.683 406.795 178.662L406.795 100.342Q406.795 96.3213 409.431 93.6853Q412.112 91.0046 415.954 91.0046Q419.975 91.0046 422.522 93.6853Q425.113 96.3213 425.113 100.342L425.113 178.662ZM415.775 78.9417Q410.459 78.9417 408.091 77.0205Q405.723 75.0994 405.723 70.4976L405.723 67.5935Q405.723 62.9917 408.269 61.2046Q410.816 59.3728 415.954 59.3728Q421.449 59.3728 423.817 61.2939Q426.23 63.2151 426.23 67.5935L426.23 70.4976Q426.23 75.2781 423.728 77.1099Q421.271 78.9417 415.775 78.9417Z" fill-rule="nonzero" fill="rgb(255, 255, 255)" fill-opacity="0.8"/>
		<path transform="matrix(1 0 0 1 16 16)" d="M489.895 89.5303Q497.758 89.5303 504.326 92.1216Q510.938 94.6682 515.763 98.5999Q520.633 102.531 523.359 106.776Q526.129 110.976 526.129 114.058L521.929 114.237L521.929 99.6274Q521.929 95.7852 524.476 93.0598Q527.022 90.2898 531.043 90.2898Q535.064 90.2898 537.611 92.9705Q540.202 95.6064 540.202 99.6274L540.202 180.315Q540.202 195.863 533.59 205.648Q527.022 215.432 516.121 219.989Q505.264 224.591 492.263 224.591Q487.706 224.591 481.451 223.385Q475.241 222.223 470.013 220.57Q464.831 218.917 462.82 217.264Q458.576 215.075 457.191 212.126Q455.851 209.222 457.146 206.318Q458.978 202.252 462.061 201.359Q465.188 200.465 469.209 201.895Q471.041 202.476 474.883 203.905Q478.726 205.38 483.461 206.541Q488.242 207.748 492.442 207.748Q507.096 207.748 514.512 200.957Q521.929 194.21 521.929 182.505L521.929 166.019L523.939 167.314Q523.359 171.156 520.499 175.088Q517.685 179.02 513.127 182.326Q508.57 185.632 502.583 187.732Q496.641 189.832 490.431 189.832Q477.43 189.832 467.154 183.354Q456.923 176.831 450.891 165.572Q444.86 154.313 444.86 139.703Q444.86 125.049 450.891 113.79Q456.923 102.531 467.065 96.0532Q477.251 89.5303 489.895 89.5303ZM492.62 106.374Q483.64 106.374 476.849 110.797Q470.103 115.175 466.26 122.681Q462.418 130.187 462.418 139.703Q462.418 149.22 466.26 156.726Q470.103 164.231 476.849 168.61Q483.64 172.988 492.62 172.988Q501.601 172.988 508.347 168.699Q515.138 164.41 518.98 156.815Q522.822 149.22 522.822 139.703Q522.822 130.187 518.98 122.592Q515.138 114.997 508.347 110.708Q501.601 106.374 492.62 106.374Z" fill-rule="nonzero" fill="rgb(255, 255, 255)" fill-opacity="0.8"/>
		<path transform="matrix(1 0 0 1 16 16)" d="M582.859 178.662Q582.859 182.683 580.268 185.364Q577.721 188 573.7 188Q569.858 188 567.177 185.364Q564.541 182.683 564.541 178.662L564.541 100.342Q564.541 96.3213 567.177 93.6853Q569.858 91.0046 573.7 91.0046Q577.721 91.0046 580.268 93.6853Q582.859 96.3213 582.859 100.342L582.859 178.662ZM573.521 78.9417Q568.205 78.9417 565.837 77.0205Q563.469 75.0994 563.469 70.4976L563.469 67.5935Q563.469 62.9917 566.016 61.2046Q568.562 59.3728 573.7 59.3728Q579.195 59.3728 581.563 61.2939Q583.976 63.2151 583.976 67.5935L583.976 70.4976Q583.976 75.2781 581.474 77.1099Q579.017 78.9417 573.521 78.9417Z" fill-rule="nonzero" fill="rgb(255, 255, 255)" fill-opacity="0.8"/>
		<path transform="matrix(1 0 0 1 16 16)" d="M616.724 188Q612.658 188 610.112 185.364Q607.565 182.683 607.565 178.662L607.565 101.057Q607.565 97.0361 610.112 94.4001Q612.658 91.7642 616.724 91.7642Q620.566 91.7642 623.202 94.4001Q625.838 97.0361 625.838 101.057L625.838 121.564L624.006 113.701Q625.481 108.563 628.474 104.185Q631.512 99.8062 635.712 96.5Q639.956 93.1938 645.139 91.3621Q650.366 89.5303 656.04 89.5303Q660.821 89.5303 664.261 92.1216Q667.746 94.6682 667.746 98.5105Q667.746 103.47 665.199 105.748Q662.653 108.027 659.525 108.027Q656.8 108.027 654.209 106.865Q651.662 105.659 648.177 105.659Q644.335 105.659 640.314 107.669Q636.293 109.68 632.987 113.612Q629.681 117.543 627.759 122.86Q625.838 128.177 625.838 134.744L625.838 178.662Q625.838 182.683 623.202 185.364Q620.566 188 616.724 188Z" fill-rule="nonzero" fill="rgb(255, 255, 255)" fill-opacity="0.8"/>
		<path transform="matrix(1 0 0 1 16 16)" d="M701.26 178.662Q701.26 182.683 698.669 185.364Q696.122 188 692.101 188Q688.259 188 685.578 185.364Q682.942 182.683 682.942 178.662L682.942 100.342Q682.942 96.3213 685.578 93.6853Q688.259 91.0046 692.101 91.0046Q696.122 91.0046 698.669 93.6853Q701.26 96.3213 701.26 100.342L701.26 178.662ZM691.922 78.9417Q686.606 78.9417 684.238 77.0205Q681.87 75.0994 681.87 70.4976L681.87 67.5935Q681.87 62.9917 684.417 61.2046Q686.963 59.3728 692.101 59.3728Q697.596 59.3728 699.964 61.2939Q702.377 63.2151 702.377 67.5935L702.377 70.4976Q702.377 75.2781 699.875 77.1099Q697.418 78.9417 691.922 78.9417Z" fill-rule="nonzero" fill="rgb(255, 255, 255)" fill-opacity="0.8"/>
	</g>
</svg>
