<?xml version="1.0" encoding="utf-8" ?>
<svg xmlns="http://www.w3.org/2000/svg" xmlns:xlink="http://www.w3.org/1999/xlink" width="893" height="270" viewBox="0 0 893 270">
	<path transform="matrix(1 0 0 1 16 16)" d="M246.439 140.24L182.546 30.4871L182.42 30.2696C169.889 10.0899 151.749 0 128 0C104.251 0 86.1108 10.0899 73.5797 30.2696L73.4539 30.4871L9.5613 140.24C3.45879 150.122 0.277415 160.869 0.0171768 172.481C-0.243062 184.094 2.45366 194.973 8.10734 205.118C13.761 215.264 21.5934 223.279 31.6043 229.165C41.6153 235.05 52.4268 237.995 64.0387 238L191.961 238C203.573 237.995 214.385 235.05 224.396 229.165C234.407 223.279 242.239 215.264 247.893 205.118C253.546 194.973 256.243 184.094 255.983 172.481C255.723 160.869 252.541 150.122 246.439 140.24ZM231.933 196.175C227.943 203.476 222.364 209.236 215.194 213.454C208.023 217.673 200.279 219.751 191.961 219.691L182.912 219.691L182.912 164.763C182.912 159.707 181.125 155.391 177.551 151.816C173.977 148.241 169.663 146.454 164.608 146.454L91.3919 146.454C86.3374 146.454 82.023 148.241 78.449 151.816C74.8749 155.391 73.0878 159.707 73.0878 164.763L73.0878 219.691L64.0387 219.691C55.7333 219.693 48.0004 217.59 40.84 213.38C33.6796 209.171 28.0799 203.437 24.0409 196.177C20.0019 188.918 18.081 181.136 18.2783 172.831C18.4755 164.525 20.7636 156.843 25.1426 149.784C25.1658 149.747 25.1878 149.709 25.2088 149.671C25.2298 149.633 25.2497 149.594 25.2685 149.555L89.1611 39.8134C98.1224 25.471 111.057 18.2998 127.966 18.2998C144.874 18.2998 157.809 25.471 166.77 39.8134L230.663 149.555C230.682 149.594 230.702 149.633 230.723 149.671C230.744 149.709 230.766 149.747 230.789 149.784C235.235 156.82 237.561 164.499 237.767 172.821C237.972 181.143 236.027 188.928 231.933 196.175Z" fill-rule="nonzero" fill="rgb(255, 255, 255)" fill-opacity="0.8"/>
	<path transform="matrix(1 0 0 1 272 16)" d="M151.432 123.932Q151.432 137.872 146.831 149.845Q142.273 161.819 133.919 170.799Q125.609 179.779 114.26 184.828Q102.957 189.832 89.3749 189.832Q76.0163 189.832 64.6682 184.828Q53.3647 179.779 45.0099 170.799Q36.6999 161.819 32.1874 149.845Q27.7197 137.872 27.7197 123.932Q27.7197 110.037 32.1874 98.0637Q36.6999 86.0901 45.0099 77.1099Q53.3647 68.1296 64.6682 63.1257Q76.0163 58.0771 89.3749 58.0771Q102.957 58.0771 114.26 63.1257Q125.609 68.1296 133.919 77.1099Q142.273 86.0901 146.831 98.0637Q151.432 110.037 151.432 123.932ZM131.685 123.932Q131.685 110.395 126.279 99.6274Q120.873 88.8154 111.356 82.6052Q101.84 76.3503 89.3749 76.3503Q77.1332 76.3503 67.6169 82.6052Q58.1005 88.8154 52.7839 99.5381Q47.4672 110.216 47.4672 123.932Q47.4672 137.514 52.7839 148.326Q58.1005 159.094 67.6169 165.304Q77.1332 171.514 89.3749 171.514Q101.84 171.514 111.356 165.304Q120.873 159.094 126.279 148.326Q131.685 137.514 131.685 123.932Z" fill-rule="nonzero" fill="rgb(255, 255, 255)" fill-opacity="0.8"/>
	<path transform="matrix(1 0 0 1 272 16)" d="M221.534 89.5303Q234.535 89.5303 241.639 94.9363Q248.788 100.342 251.602 109.412Q254.462 118.481 254.462 129.606L254.462 178.662Q254.462 182.683 251.781 185.364Q249.145 188 245.303 188Q241.282 188 238.69 185.364Q236.144 182.683 236.144 178.662L236.144 129.785Q236.144 123.217 234.312 118.035Q232.48 112.807 228.013 109.591Q223.545 106.374 215.503 106.374Q207.997 106.374 202.323 109.591Q196.649 112.807 193.432 118.035Q190.215 123.217 190.215 129.785L190.215 178.662Q190.215 182.683 187.579 185.364Q184.943 188 181.101 188Q177.035 188 174.489 185.364Q171.942 182.683 171.942 178.662L171.942 101.057Q171.942 97.0361 174.489 94.4001Q177.035 91.7642 181.101 91.7642Q184.943 91.7642 187.579 94.4001Q190.215 97.0361 190.215 101.057L190.215 111.333L186.954 113.165Q188.205 109.144 191.421 105.033Q194.638 100.878 199.195 97.3489Q203.753 93.7747 209.427 91.6748Q215.101 89.5303 221.534 89.5303Z" fill-rule="nonzero" fill="rgb(255, 255, 255)" fill-opacity="0.8"/>
	<path transform="matrix(1 0 0 1 272 16)" d="M297.113 178.662Q297.113 182.683 294.522 185.364Q291.975 188 287.954 188Q284.112 188 281.431 185.364Q278.795 182.683 278.795 178.662L278.795 100.342Q278.795 96.3213 281.431 93.6853Q284.112 91.0046 287.954 91.0046Q291.975 91.0046 294.522 93.6853Q297.113 96.3213 297.113 100.342L297.113 178.662ZM287.775 78.9417Q282.459 78.9417 280.091 77.0205Q277.723 75.0994 277.723 70.4976L277.723 67.5935Q277.723 62.9917 280.269 61.2046Q282.816 59.3728 287.954 59.3728Q293.449 59.3728 295.817 61.2939Q298.23 63.2151 298.23 67.5935L298.23 70.4976Q298.23 75.2781 295.728 77.1099Q293.271 78.9417 287.775 78.9417Z" fill-rule="nonzero" fill="rgb(255, 255, 255)" fill-opacity="0.8"/>
	<path transform="matrix(1 0 0 1 272 16)" d="M361.895 89.5303Q369.758 89.5303 376.326 92.1216Q382.938 94.6682 387.763 98.5999Q392.633 102.531 395.359 106.776Q398.129 110.976 398.129 114.058L393.929 114.237L393.929 99.6274Q393.929 95.7852 396.476 93.0598Q399.022 90.2898 403.043 90.2898Q407.064 90.2898 409.611 92.9705Q412.202 95.6064 412.202 99.6274L412.202 180.315Q412.202 195.863 405.59 205.648Q399.022 215.432 388.121 219.989Q377.264 224.591 364.263 224.591Q359.706 224.591 353.451 223.385Q347.241 222.223 342.013 220.57Q336.831 218.917 334.82 217.264Q330.576 215.075 329.191 212.126Q327.851 209.222 329.146 206.318Q330.978 202.252 334.061 201.359Q337.188 200.465 341.209 201.895Q343.041 202.476 346.883 203.905Q350.726 205.38 355.461 206.541Q360.242 207.748 364.442 207.748Q379.096 207.748 386.512 200.957Q393.929 194.21 393.929 182.505L393.929 166.019L395.939 167.314Q395.359 171.156 392.499 175.088Q389.685 179.02 385.127 182.326Q380.57 185.632 374.583 187.732Q368.641 189.832 362.431 189.832Q349.43 189.832 339.154 183.354Q328.923 176.831 322.891 165.572Q316.86 154.313 316.86 139.703Q316.86 125.049 322.891 113.79Q328.923 102.531 339.065 96.0532Q349.251 89.5303 361.895 89.5303ZM364.62 106.374Q355.64 106.374 348.849 110.797Q342.103 115.175 338.26 122.681Q334.418 130.187 334.418 139.703Q334.418 149.22 338.26 156.726Q342.103 164.231 348.849 168.61Q355.64 172.988 364.62 172.988Q373.601 172.988 380.347 168.699Q387.138 164.41 390.98 156.815Q394.822 149.22 394.822 139.703Q394.822 130.187 390.98 122.592Q387.138 114.997 380.347 110.708Q373.601 106.374 364.62 106.374Z" fill-rule="nonzero" fill="rgb(255, 255, 255)" fill-opacity="0.8"/>
	<path transform="matrix(1 0 0 1 272 16)" d="M454.859 178.662Q454.859 182.683 452.268 185.364Q449.721 188 445.7 188Q441.858 188 439.177 185.364Q436.541 182.683 436.541 178.662L436.541 100.342Q436.541 96.3213 439.177 93.6853Q441.858 91.0046 445.7 91.0046Q449.721 91.0046 452.268 93.6853Q454.859 96.3213 454.859 100.342L454.859 178.662ZM445.521 78.9417Q440.205 78.9417 437.837 77.0205Q435.469 75.0994 435.469 70.4976L435.469 67.5935Q435.469 62.9917 438.016 61.2046Q440.562 59.3728 445.7 59.3728Q451.195 59.3728 453.563 61.2939Q455.976 63.2151 455.976 67.5935L455.976 70.4976Q455.976 75.2781 453.474 77.1099Q451.017 78.9417 445.521 78.9417Z" fill-rule="nonzero" fill="rgb(255, 255, 255)" fill-opacity="0.8"/>
	<path transform="matrix(1 0 0 1 272 16)" d="M488.724 188Q484.658 188 482.112 185.364Q479.565 182.683 479.565 178.662L479.565 101.057Q479.565 97.0361 482.112 94.4001Q484.658 91.7642 488.724 91.7642Q492.566 91.7642 495.202 94.4001Q497.838 97.0361 497.838 101.057L497.838 121.564L496.007 113.701Q497.481 108.563 500.474 104.185Q503.512 99.8062 507.712 96.5Q511.956 93.1938 517.139 91.3621Q522.366 89.5303 528.04 89.5303Q532.821 89.5303 536.261 92.1216Q539.746 94.6682 539.746 98.5105Q539.746 103.47 537.199 105.748Q534.653 108.027 531.525 108.027Q528.8 108.027 526.209 106.865Q523.662 105.659 520.177 105.659Q516.335 105.659 512.314 107.669Q508.293 109.68 504.987 113.612Q501.681 117.543 499.759 122.86Q497.838 128.177 497.838 134.744L497.838 178.662Q497.838 182.683 495.202 185.364Q492.566 188 488.724 188Z" fill-rule="nonzero" fill="rgb(255, 255, 255)" fill-opacity="0.8"/>
	<path transform="matrix(1 0 0 1 272 16)" d="M573.26 178.662Q573.26 182.683 570.669 185.364Q568.122 188 564.101 188Q560.259 188 557.578 185.364Q554.942 182.683 554.942 178.662L554.942 100.342Q554.942 96.3213 557.578 93.6853Q560.259 91.0046 564.101 91.0046Q568.122 91.0046 570.669 93.6853Q573.26 96.3213 573.26 100.342L573.26 178.662ZM563.922 78.9417Q558.606 78.9417 556.238 77.0205Q553.87 75.0994 553.87 70.4976L553.87 67.5935Q553.87 62.9917 556.417 61.2046Q558.963 59.3728 564.101 59.3728Q569.596 59.3728 571.964 61.2939Q574.377 63.2151 574.377 67.5935L574.377 70.4976Q574.377 75.2781 571.875 77.1099Q569.418 78.9417 563.922 78.9417Z" fill-rule="nonzero" fill="rgb(255, 255, 255)" fill-opacity="0.8"/>
</svg>
