<?xml version="1.0" encoding="utf-8" ?>
<svg xmlns="http://www.w3.org/2000/svg" xmlns:xlink="http://www.w3.org/1999/xlink" width="893" height="270" viewBox="0 0 893 270">
	<path transform="matrix(1 0 0 1 319 16)" d="M246.439 140.24L182.546 30.4871L182.42 30.2696C169.889 10.0899 151.749 0 128 0C104.251 0 86.1108 10.0899 73.5797 30.2696L73.4539 30.4871L9.5613 140.24C3.45879 150.122 0.277415 160.869 0.0171768 172.481C-0.243062 184.094 2.45366 194.973 8.10734 205.118C13.761 215.264 21.5934 223.279 31.6043 229.165C41.6153 235.05 52.4268 237.995 64.0387 238L191.961 238C203.573 237.995 214.385 235.05 224.396 229.165C234.407 223.279 242.239 215.264 247.893 205.118C253.546 194.973 256.243 184.094 255.983 172.481C255.723 160.869 252.541 150.122 246.439 140.24ZM231.933 196.175C227.943 203.476 222.364 209.236 215.194 213.454C208.023 217.673 200.279 219.751 191.961 219.691L182.912 219.691L182.912 164.763C182.912 159.707 181.125 155.391 177.551 151.816C173.977 148.241 169.663 146.454 164.608 146.454L91.3919 146.454C86.3374 146.454 82.023 148.241 78.449 151.816C74.8749 155.391 73.0878 159.707 73.0878 164.763L73.0878 219.691L64.0387 219.691C55.7333 219.693 48.0004 217.59 40.84 213.38C33.6796 209.171 28.0799 203.437 24.0409 196.177C20.0019 188.918 18.081 181.136 18.2783 172.831C18.4755 164.525 20.7636 156.843 25.1426 149.784C25.1658 149.747 25.1878 149.709 25.2088 149.671C25.2298 149.633 25.2497 149.594 25.2685 149.555L89.1611 39.8134C98.1224 25.471 111.057 18.2998 127.966 18.2998C144.874 18.2998 157.809 25.471 166.77 39.8134L230.663 149.555C230.682 149.594 230.702 149.633 230.723 149.671C230.744 149.709 230.766 149.747 230.789 149.784C235.235 156.82 237.561 164.499 237.767 172.821C237.972 181.143 236.027 188.928 231.933 196.175Z" fill-rule="nonzero" fill="rgb(255, 255, 255)" fill-opacity="0.1"/>
	<defs>
		<filter id="filter8429835624" filterUnits="userSpaceOnUse" color-interpolation-filters="sRGB">
			<feComponentTransfer in="SourceAlpha" result="componentTransfer2329294114">
				<feFuncR type="linear" slope="0" intercept="0"/>
				<feFuncG type="linear" slope="0" intercept="0"/>
				<feFuncB type="linear" slope="0" intercept="0"/>
				<feFuncA type="linear" slope="10000" intercept="0"/>
			</feComponentTransfer>
			<feComponentTransfer in="componentTransfer2329294114" result="componentTransfer5916760344">
				<feFuncA type="linear" slope="0.5" intercept="0"/>
			</feComponentTransfer>
			<feOffset dx="0" dy="4" in="componentTransfer5916760344" result="offset5514953543"/>
			<feGaussianBlur stdDeviation="2" in="offset5514953543" result="gaussianBlur7954657891"/>
			<feMerge>
				<feMergeNode in="gaussianBlur7954657891"/>
				<feMergeNode in="SourceGraphic"/>
			</feMerge>
		</filter>
	</defs>
	<g filter="url(#filter8429835624)">
		<path transform="matrix(1 0 0 1 16 119)" d="M279.432 20.9321Q279.432 34.8716 274.831 46.8452Q270.273 58.8188 261.919 67.7991Q253.609 76.7793 242.26 81.8279Q230.957 86.8318 217.375 86.8318Q204.016 86.8318 192.668 81.8279Q181.365 76.7793 173.01 67.7991Q164.7 58.8188 160.187 46.8452Q155.72 34.8716 155.72 20.9321Q155.72 7.03735 160.187 -4.93628Q164.7 -16.9099 173.01 -25.8901Q181.365 -34.8704 192.668 -39.8743Q204.016 -44.9229 217.375 -44.9229Q230.957 -44.9229 242.26 -39.8743Q253.609 -34.8704 261.919 -25.8901Q270.273 -16.9099 274.831 -4.93628Q279.432 7.03735 279.432 20.9321ZM259.685 20.9321Q259.685 7.39478 254.279 -3.37256Q248.873 -14.1846 239.356 -20.3948Q229.84 -26.6497 217.375 -26.6497Q205.133 -26.6497 195.617 -20.3948Q186.101 -14.1846 180.784 -3.46191Q175.467 7.21606 175.467 20.9321Q175.467 34.5142 180.784 45.3262Q186.101 56.0935 195.617 62.3037Q205.133 68.5139 217.375 68.5139Q229.84 68.5139 239.356 62.3037Q248.873 56.0935 254.279 45.3262Q259.685 34.5142 259.685 20.9321Z" fill-rule="nonzero" fill="rgb(255, 255, 255)" fill-opacity="0.8"/>
		<path transform="matrix(1 0 0 1 16 119)" d="M349.534 -13.4697Q362.535 -13.4697 369.639 -8.06372Q376.788 -2.65771 379.602 6.41187Q382.462 15.4814 382.462 26.6062L382.462 75.6624Q382.462 79.6833 379.781 82.364Q377.145 85 373.303 85Q369.282 85 366.69 82.364Q364.144 79.6833 364.144 75.6624L364.144 26.7849Q364.144 20.2173 362.312 15.0347Q360.48 9.80737 356.013 6.59058Q351.545 3.37378 343.503 3.37378Q335.997 3.37378 330.323 6.59058Q324.649 9.80737 321.432 15.0347Q318.215 20.2173 318.215 26.7849L318.215 75.6624Q318.215 79.6833 315.579 82.364Q312.943 85 309.101 85Q305.035 85 302.489 82.364Q299.942 79.6833 299.942 75.6624L299.942 -1.94287Q299.942 -5.96387 302.489 -8.59985Q305.035 -11.2358 309.101 -11.2358Q312.943 -11.2358 315.579 -8.59985Q318.215 -5.96387 318.215 -1.94287L318.215 8.33301L314.954 10.1648Q316.205 6.1438 319.421 2.03345Q322.638 -2.12158 327.195 -5.65112Q331.753 -9.22534 337.427 -11.3252Q343.101 -13.4697 349.534 -13.4697Z" fill-rule="nonzero" fill="rgb(255, 255, 255)" fill-opacity="0.8"/>
		<path transform="matrix(1 0 0 1 16 119)" d="M425.113 75.6624Q425.113 79.6833 422.522 82.364Q419.975 85 415.954 85Q412.112 85 409.431 82.364Q406.795 79.6833 406.795 75.6624L406.795 -2.65771Q406.795 -6.67871 409.431 -9.3147Q412.112 -11.9954 415.954 -11.9954Q419.975 -11.9954 422.522 -9.3147Q425.113 -6.67871 425.113 -2.65771L425.113 75.6624ZM415.775 -24.0583Q410.459 -24.0583 408.091 -25.9795Q405.723 -27.9006 405.723 -32.5024L405.723 -35.4065Q405.723 -40.0083 408.269 -41.7954Q410.816 -43.6272 415.954 -43.6272Q421.449 -43.6272 423.817 -41.7061Q426.23 -39.7849 426.23 -35.4065L426.23 -32.5024Q426.23 -27.7219 423.728 -25.8901Q421.271 -24.0583 415.775 -24.0583Z" fill-rule="nonzero" fill="rgb(255, 255, 255)" fill-opacity="0.8"/>
		<path transform="matrix(1 0 0 1 16 119)" d="M489.895 -13.4697Q497.758 -13.4697 504.326 -10.8784Q510.938 -8.33179 515.763 -4.40015Q520.633 -0.468506 523.359 3.77588Q526.129 7.97559 526.129 11.0583L521.929 11.2371L521.929 -3.37256Q521.929 -7.21484 524.476 -9.94019Q527.022 -12.7102 531.043 -12.7102Q535.064 -12.7102 537.611 -10.0295Q540.202 -7.39355 540.202 -3.37256L540.202 77.3154Q540.202 92.8633 533.59 102.648Q527.022 112.432 516.121 116.989Q505.264 121.591 492.263 121.591Q487.706 121.591 481.451 120.385Q475.241 119.223 470.013 117.57Q464.831 115.917 462.82 114.264Q458.576 112.075 457.191 109.126Q455.851 106.222 457.146 103.318Q458.978 99.2522 462.061 98.3586Q465.188 97.4651 469.209 98.8948Q471.041 99.4756 474.883 100.905Q478.726 102.38 483.461 103.541Q488.242 104.748 492.442 104.748Q507.096 104.748 514.512 97.9565Q521.929 91.2102 521.929 79.5046L521.929 63.0186L523.939 64.3142Q523.359 68.1565 520.499 72.0881Q517.685 76.0198 513.127 79.3259Q508.57 82.6321 502.583 84.7319Q496.641 86.8318 490.431 86.8318Q477.43 86.8318 467.154 80.3535Q456.923 73.8306 450.891 62.5718Q444.86 51.313 444.86 36.7034Q444.86 22.0491 450.891 10.7903Q456.923 -0.468506 467.065 -6.94678Q477.251 -13.4697 489.895 -13.4697ZM492.62 3.37378Q483.64 3.37378 476.849 7.79688Q470.103 12.1753 466.26 19.6812Q462.418 27.187 462.418 36.7034Q462.418 46.2197 466.26 53.7256Q470.103 61.2314 476.849 65.6099Q483.64 69.9883 492.62 69.9883Q501.601 69.9883 508.347 65.6992Q515.138 61.4102 518.98 53.8149Q522.822 46.2197 522.822 36.7034Q522.822 27.187 518.98 19.5918Q515.138 11.9966 508.347 7.70752Q501.601 3.37378 492.62 3.37378Z" fill-rule="nonzero" fill="rgb(255, 255, 255)" fill-opacity="0.8"/>
		<path transform="matrix(1 0 0 1 16 119)" d="M582.859 75.6624Q582.859 79.6833 580.268 82.364Q577.721 85 573.7 85Q569.858 85 567.177 82.364Q564.541 79.6833 564.541 75.6624L564.541 -2.65771Q564.541 -6.67871 567.177 -9.3147Q569.858 -11.9954 573.7 -11.9954Q577.721 -11.9954 580.268 -9.3147Q582.859 -6.67871 582.859 -2.65771L582.859 75.6624ZM573.521 -24.0583Q568.205 -24.0583 565.837 -25.9795Q563.469 -27.9006 563.469 -32.5024L563.469 -35.4065Q563.469 -40.0083 566.016 -41.7954Q568.562 -43.6272 573.7 -43.6272Q579.195 -43.6272 581.563 -41.7061Q583.976 -39.7849 583.976 -35.4065L583.976 -32.5024Q583.976 -27.7219 581.474 -25.8901Q579.017 -24.0583 573.521 -24.0583Z" fill-rule="nonzero" fill="rgb(255, 255, 255)" fill-opacity="0.8"/>
		<path transform="matrix(1 0 0 1 16 119)" d="M616.724 85Q612.658 85 610.112 82.364Q607.565 79.6833 607.565 75.6624L607.565 -1.94287Q607.565 -5.96387 610.112 -8.59985Q612.658 -11.2358 616.724 -11.2358Q620.566 -11.2358 623.202 -8.59985Q625.838 -5.96387 625.838 -1.94287L625.838 18.5642L624.006 10.7009Q625.481 5.56299 628.474 1.18457Q631.512 -3.19385 635.712 -6.5Q639.956 -9.80615 645.139 -11.6379Q650.366 -13.4697 656.04 -13.4697Q660.821 -13.4697 664.261 -10.8784Q667.746 -8.33179 667.746 -4.4895Q667.746 0.469727 665.199 2.74829Q662.653 5.02686 659.525 5.02686Q656.8 5.02686 654.209 3.86523Q651.662 2.65894 648.177 2.65894Q644.335 2.65894 640.314 4.66943Q636.293 6.67993 632.987 10.6116Q629.681 14.5432 627.759 19.8599Q625.838 25.1765 625.838 31.7441L625.838 75.6624Q625.838 79.6833 623.202 82.364Q620.566 85 616.724 85Z" fill-rule="nonzero" fill="rgb(255, 255, 255)" fill-opacity="0.8"/>
		<path transform="matrix(1 0 0 1 16 119)" d="M701.26 75.6624Q701.26 79.6833 698.669 82.364Q696.122 85 692.101 85Q688.259 85 685.578 82.364Q682.942 79.6833 682.942 75.6624L682.942 -2.65771Q682.942 -6.67871 685.578 -9.3147Q688.259 -11.9954 692.101 -11.9954Q696.122 -11.9954 698.669 -9.3147Q701.26 -6.67871 701.26 -2.65771L701.26 75.6624ZM691.922 -24.0583Q686.606 -24.0583 684.238 -25.9795Q681.87 -27.9006 681.87 -32.5024L681.87 -35.4065Q681.87 -40.0083 684.417 -41.7954Q686.963 -43.6272 692.101 -43.6272Q697.596 -43.6272 699.964 -41.7061Q702.377 -39.7849 702.377 -35.4065L702.377 -32.5024Q702.377 -27.7219 699.875 -25.8901Q697.418 -24.0583 691.922 -24.0583Z" fill-rule="nonzero" fill="rgb(255, 255, 255)" fill-opacity="0.8"/>
	</g>
</svg>
